<?xml version="1.0" encoding="UTF-8" standalone="no"?>
<!-- Created with Inkscape (http://www.inkscape.org/) -->

<svg
   width="128"
   height="128"
   id="svg2"
   sodipodi:version="0.32"
   inkscape:version="1.2.1 (9c6d41e410, 2022-07-14)"
   sodipodi:docname="avatar-black.svg"
   inkscape:output_extension="org.inkscape.output.svg.inkscape"
   inkscape:export-filename="C:\Users\Admin\Desktop\Nueva carpeta (4)\biohazard 2.png"
   inkscape:export-xdpi="90"
   inkscape:export-ydpi="90"
   version="1.0"
   xmlns:inkscape="http://www.inkscape.org/namespaces/inkscape"
   xmlns:sodipodi="http://sodipodi.sourceforge.net/DTD/sodipodi-0.dtd"
   xmlns="http://www.w3.org/2000/svg"
   xmlns:svg="http://www.w3.org/2000/svg"
   xmlns:rdf="http://www.w3.org/1999/02/22-rdf-syntax-ns#"
   xmlns:cc="http://creativecommons.org/ns#"
   xmlns:dc="http://purl.org/dc/elements/1.1/">
  <defs
     id="defs4" />
  <sodipodi:namedview
     id="base"
     pagecolor="#ffffff"
     bordercolor="#666666"
     borderopacity="1.0"
     inkscape:pageopacity="0.0"
     inkscape:pageshadow="2"
     inkscape:zoom="1.979899"
     inkscape:cx="62.124382"
     inkscape:cy="52.275394"
     inkscape:document-units="px"
     inkscape:current-layer="layer1"
     width="128px"
     height="128px"
     inkscape:showpageshadow="0"
     inkscape:pagecheckerboard="0"
     inkscape:deskcolor="#d1d1d1"
     showgrid="false"
     inkscape:window-width="1366"
     inkscape:window-height="705"
     inkscape:window-x="-8"
     inkscape:window-y="-8"
     inkscape:window-maximized="1" />
  <metadata
     id="metadata7">
    <rdf:RDF>
      <cc:Work
         rdf:about="">
        <dc:format>image/svg+xml</dc:format>
        <dc:type
           rdf:resource="http://purl.org/dc/dcmitype/StillImage" />
      </cc:Work>
    </rdf:RDF>
  </metadata>
  <g
     inkscape:label="Capa 1"
     inkscape:groupmode="layer"
     id="layer1">
    <path
       id="path2234"
       style="fill:#000000;stroke-width:0.846845"
       d="m 35.543096,109.2455 c -4.802817,-1.31402 -10.985651,-4.69046 -14.353379,-7.83838 l -3.131648,-2.927244 3.392617,2.334534 c 5.106953,3.51423 9.059319,4.66975 15.136293,4.42525 4.232706,-0.1703 5.474745,-0.44169 8.485993,-1.8541 4.733986,-2.22048 8.797635,-6.144814 11.07337,-10.693741 0.993652,-1.986186 1.948059,-4.365081 2.120908,-5.286439 0.256383,-1.366642 0.820933,-1.940468 3.065066,-3.115426 l 2.750798,-1.440223 2.586489,1.299115 c 2.425899,1.218462 2.646837,1.500587 3.558442,4.543853 2.099363,7.008448 8.419416,13.477251 15.219359,15.577531 8.031648,2.48073 16.502426,0.71276 23.057716,-4.812454 1.69766,-1.43089 1.64681,-1.32725 -0.41221,0.840184 -10.381787,10.92843 -28.18175,12.90869 -41.082553,4.5705 l -3.089605,-1.9969 -1.265805,1.02499 c -1.679555,1.36002 -5.793415,3.42181 -9.354122,4.68808 -3.925627,1.39605 -13.736063,1.76118 -17.757729,0.66087 z M 49.635507,91.128297 C 45.131443,88.530118 40.047131,83.138997 37.925268,78.71141 35.64318,73.949497 34.933592,70.557353 35.128484,65.341598 l 0.153642,-4.111755 1.826793,0.123742 c 1.004738,0.06805 2.561752,0.249528 3.460034,0.403273 l 1.633239,0.279536 -1.229395,2.989341 c -1.248757,3.036427 -1.572859,7.317878 -0.759682,10.035548 0.273562,0.914252 0.389389,0.366241 0.386929,-1.830709 -0.002,-1.779615 0.33453,-3.780732 0.778187,-4.627478 l 0.781692,-1.491916 0.582957,2.902766 c 0.798127,3.974153 2.804595,7.731718 5.773183,10.811577 2.269735,2.35481 2.383433,2.586818 1.267697,2.586818 -1.305997,0 -3.751628,-0.992042 -5.889606,-2.389049 -0.772754,-0.504941 -0.559914,-0.16807 0.521941,0.82609 2.348358,2.158008 5.582749,3.619307 8.873515,4.00905 1.766028,0.209162 2.60919,0.549424 2.60919,1.052954 0,1.297735 -2.191687,5.896367 -2.804465,5.884375 -0.323485,-0.0063 -1.879956,-0.756699 -3.458828,-1.667464 z M 73.364911,90.06709 c -0.701654,-1.507107 -1.278036,-3.000922 -1.280837,-3.319594 -0.0028,-0.318672 1.254455,-0.709402 2.793908,-0.868286 3.28506,-0.339049 7.363252,-2.27445 9.205637,-4.368749 0.827361,-0.940486 0.915867,-1.157677 0.241868,-0.593509 -1.394589,1.167321 -4.610284,2.495389 -6.042167,2.495389 -0.980404,0 -0.775725,-0.381314 1.49142,-2.778487 3.437749,-3.63491 5.667154,-8.09257 5.984716,-11.966348 0.06472,-0.789438 0.195857,-1.43534 0.291428,-1.43534 0.524419,0 1.693869,3.935745 1.73975,5.855073 l 0.05343,2.235014 0.46912,-1.826794 c 0.59936,-2.333979 0.136665,-5.892025 -1.147378,-8.823174 -0.55389,-1.264397 -0.890134,-2.415856 -0.74719,-2.55879 0.14293,-0.142939 1.731175,-0.282793 3.529429,-0.310795 l 3.26955,-0.05091 -0.04019,4.69747 c -0.06458,7.547587 -2.824553,14.223611 -8.091976,19.573454 -2.48683,2.525731 -8.813941,6.78457 -10.079455,6.78457 -0.200922,0 -0.939394,-1.233075 -1.641057,-2.740188 z M 11.605861,84.630144 C 8.6829925,70.076099 15.536984,55.621106 28.571625,48.849528 l 3.206381,-1.665733 -0.03928,-4.981621 c -0.0453,-5.743676 0.917168,-10.001648 3.418087,-15.121769 2.350739,-4.812659 9.336623,-11.827887 13.956755,-14.015385 5.16158,-2.443854 6.358728,-2.551115 2.870678,-0.257202 -4.195314,2.759042 -7.310085,6.268126 -9.309071,10.48755 -1.559701,3.292186 -1.651054,3.820666 -1.640205,9.488683 0.01077,5.62838 0.11372,6.220284 1.652457,9.500905 0.902532,1.924221 2.759938,4.694854 4.127571,6.156961 2.424637,2.592136 2.483266,2.732565 2.352697,5.635389 -0.07365,1.637354 -0.343096,3.052721 -0.598776,3.14526 -0.255679,0.09254 -1.338633,0.761204 -2.406562,1.485919 -1.8585,1.261216 -2.070734,1.290287 -4.953457,0.67853 -1.672995,-0.355036 -4.956211,-0.537081 -7.386108,-0.409545 -12.804859,0.672087 -22.590513,11.885351 -21.616078,24.769614 0.159763,2.112433 0.223578,3.840786 0.141813,3.840786 -0.08177,0 -0.415965,-1.330973 -0.742663,-2.957726 z M 115.97546,82.332706 c -0.0294,-2.459737 -0.41075,-5.675447 -0.84745,-7.146016 C 113.16739,68.584558 106.61215,62.004357 99.943895,59.944741 96.012873,58.730571 89.1097,58.558621 86.221522,59.602933 84.557015,60.204782 84.268715,60.129336 81.654538,58.40776 L 78.86421,56.570182 v -2.784966 c 0,-2.497645 0.195126,-2.984227 1.891377,-4.716375 10.685663,-10.911824 8.183342,-28.977609 -5.066086,-36.575107 -4.126961,-2.366487 -2.027286,-1.991112 3.117018,0.557255 11.129794,5.513434 18.260842,17.68351 17.714436,30.232055 l -0.173061,3.974728 3.915226,2.01039 c 5.6718,2.912351 10.74502,8.127219 13.46514,13.841103 1.14782,2.411128 2.38773,5.675676 2.75534,7.254547 0.75483,3.241992 0.77547,11.852361 0.0351,14.614353 -0.41547,1.549793 -0.49784,1.148661 -0.54316,-2.645459 z M 48.106434,45.816851 c -1.169618,-1.479677 -1.998349,-2.897798 -1.841628,-3.15138 0.576466,-0.932741 6.855724,-4.083984 9.894963,-4.965782 4.207296,-1.220694 11.559546,-1.226014 15.630947,-0.01131 3.65876,1.091593 8.678304,3.54076 9.64568,4.706381 0.740718,0.892507 0.466151,1.479643 -2.206671,4.718783 l -1.272348,1.541932 -0.833935,-1.612655 c -1.204631,-2.329504 -5.252644,-5.702674 -7.944096,-6.619746 -2.696855,-0.918908 -3.106965,-0.674764 -0.615322,0.366313 1.706419,0.712988 5.378901,4.397104 4.88027,4.895734 -0.145674,0.145672 -1.376365,-0.113865 -2.734862,-0.576753 -3.371422,-1.148757 -10.10754,-1.079944 -13.636868,0.139306 l -2.740792,0.946844 0.996309,-1.616307 c 0.547969,-0.888972 2.251075,-2.401458 3.784675,-3.361084 2.694152,-1.685824 1.816251,-1.816655 -1.387163,-0.206728 -2.841078,1.427834 -4.319784,2.706721 -5.916003,5.116572 L 50.233011,48.50717 Z M 50.42009,66.820803 C 50.280023,66.684852 50.286163,66.494178 50.286163,66.494178 V 51.569389 c 0,0 -0.01307,-0.1689 0.115181,-0.298581 0.126974,-0.128393 0.290337,-0.112616 0.290337,-0.112616 h 5.012902 c 1.957848,1.6e-5 3.485842,0.363048 4.583985,1.0891 1.098121,0.726083 1.647187,1.807961 1.647199,3.245635 -1.2e-5,0.751365 -0.177013,1.419637 -0.531005,2.004816 -0.354014,0.585199 -0.899469,1.025897 -1.636364,1.322095 0.924732,0.209523 1.607453,0.630352 2.048165,1.262491 0.440685,0.632157 0.661034,1.360032 0.661045,2.183624 -1.1e-5,1.538837 -0.516567,2.701991 -1.549668,3.489462 -1.033121,0.787479 -2.514154,1.181218 -4.443104,1.181218 h -5.725264 c 0,0 -0.195791,0.02374 -0.339482,-0.11583 z m 3.539761,-6.657196 v 3.955448 h 2.524985 c 0.780244,2e-6 1.365432,-0.153521 1.755569,-0.460567 0.390116,-0.307039 0.585179,-0.778443 0.58519,-1.414208 -1.1e-5,-0.686328 -0.167983,-1.20469 -0.503913,-1.555086 -0.335952,-0.350385 -0.879598,-0.52558 -1.630945,-0.525587 z m 0,-2.427453 h 1.82059 c 0.830815,-0.01444 1.452131,-0.175185 1.863938,-0.48224 0.41179,-0.307034 0.617689,-0.756763 0.617698,-1.349186 -9e-6,-0.671873 -0.209519,-1.161337 -0.628536,-1.468392 -0.419032,-0.307032 -1.062018,-0.460553 -1.928958,-0.460566 h -1.744732 z m 23.63918,9.118576 c -0.118456,0.0988 -0.293529,0.0819 -0.293529,0.0819 h -3.243309 v -6.35039 h -5.841058 v 6.350389 h -3.448377 c 0,0 -0.09475,7.3e-4 -0.161127,-0.06052 -0.06588,-0.06078 -0.06419,-0.158549 -0.06419,-0.158549 V 51.461832 c 0,0 -0.0045,-0.134069 0.08703,-0.224297 0.09113,-0.0899 0.241925,-0.07935 0.241925,-0.07935 h 3.344739 v 6.610472 h 5.841058 v -6.610472 h 3.041545 c 0,0 0.239431,-0.01799 0.425865,0.144787 0.162609,0.141968 0.184605,0.422833 0.184605,0.422833 v 14.873033 c 0,0 0.002,0.15814 -0.115178,0.255885 z M 60.565369,82.804336 H 57.255742 V 71.834449 h -3.191777 v -2.337366 l 6.501404,-1.001725 z M 74.84605,71.05369 c -1.427305,1.630269 -2.412663,3.221246 -2.956076,4.77293 -0.543426,1.551701 -0.926439,3.414388 -1.149038,5.588064 l -0.13749,1.38474 h -3.319449 l 0.127671,-1.38474 c 0.196413,-2.042731 0.644898,-3.938155 1.345457,-5.686271 0.700547,-1.748103 1.669536,-3.306341 2.906969,-4.674723 H 64.534159 V 68.500268 H 74.84605 Z" />
  </g>
</svg>
