<?xml version="1.0" encoding="UTF-8" standalone="no"?>
<!-- Created with Inkscape (http://www.inkscape.org/) -->

<svg
   width="650"
   height="650"
   viewBox="0 0 171.97916 171.97917"
   version="1.1"
   id="svg5"
   xmlns="http://www.w3.org/2000/svg"
   xmlns:svg="http://www.w3.org/2000/svg">
  <defs
     id="defs2">
    <filter
       style="color-interpolation-filters:sRGB"
       id="filter11783"
       x="-0.19125658"
       y="-0.069775894"
       width="1.4940795"
       height="1.1395518">
      <feFlood
         flood-opacity="0.533333"
         flood-color="rgb(0,0,0)"
         result="flood"
         id="feFlood11773" />
      <feComposite
         in="flood"
         in2="SourceGraphic"
         operator="in"
         result="composite1"
         id="feComposite11775" />
      <feGaussianBlur
         in="composite1"
         stdDeviation="5"
         result="blur"
         id="feGaussianBlur11777" />
      <feOffset
         dx="7"
         dy="0"
         result="offset"
         id="feOffset11779" />
      <feComposite
         in="SourceGraphic"
         in2="offset"
         operator="over"
         result="composite2"
         id="feComposite11781" />
    </filter>
    <filter
       style="color-interpolation-filters:sRGB"
       id="filter11835"
       x="-0.30110925"
       y="-0.069775909"
       width="1.4912835"
       height="1.1395518">
      <feFlood
         flood-opacity="0.533333"
         flood-color="rgb(0,0,0)"
         result="flood"
         id="feFlood11825" />
      <feComposite
         in="flood"
         in2="SourceGraphic"
         operator="in"
         result="composite1"
         id="feComposite11827" />
      <feGaussianBlur
         in="composite1"
         stdDeviation="5"
         result="blur"
         id="feGaussianBlur11829" />
      <feOffset
         dx="-7"
         dy="0"
         result="offset"
         id="feOffset11831" />
      <feComposite
         in="SourceGraphic"
         in2="offset"
         operator="over"
         result="composite2"
         id="feComposite11833" />
    </filter>
  </defs>
  <g
     id="layer1"
     transform="translate(41.11475,-40.032787)">
    <path
       id="rect11620"
       style="fill:#ffffff;fill-rule:evenodd;stroke-width:0;filter:url(#filter11783)"
       d="M -41.11475,40.032787 V 212.01195 h 9.148796 c 3.343096,-8.46281 11.514526,-14.02652 20.613728,-14.03532 3.2600213,0.0151 6.476681,0.74833 9.4211308,2.14768 1.45031038,0.36205 2.9380683,0.55283 4.4328043,0.56844 10.5632119,-1e-4 19.1263819,-8.56327 19.1264809,-19.12648 -0.01684,-9.27026 -6.67911,-17.19391 -15.8088539,-18.80196 -0.3135483,0.0272 -0.6276407,0.0477 -0.9420614,0.0615 -12.253561,1.9e-4 -22.1871857,-9.9332 -22.1872757,-22.18676 0.0033,-9.01471 5.460803,-17.13126 13.8079422,-20.5357 4.09552853,-3.61632 6.4490094,-8.8115 6.4667888,-14.2751 C 2.9477177,98.325396 -1.45448,91.525377 -8.2929808,88.438618 -17.608027,87.205778 -24.570902,79.266515 -24.577775,69.870242 c 2.8e-5,-10.352045 8.39203,-18.744048 18.7440756,-18.744075 0.4947146,0.01575 0.9886127,0.05109 1.4805298,0.105936 1.6997108,-3.189069 2.6329422,-6.80358 1.9363159,-11.199316 z M 3.786902,170.13957 A 12.172132,12.172132 0 0 1 15.958769,182.31144 12.172132,12.172132 0 0 1 3.786902,194.48382 12.172132,12.172132 0 0 1 -8.3854816,182.31144 12.172132,12.172132 0 0 1 3.786902,170.13957 Z" />
    <path
       id="path11714"
       style="fill:#ffffff;fill-rule:evenodd;stroke-width:0;filter:url(#filter11835)"
       d="m 116.17952,40.032787 c -2.85299,9.306243 -11.43862,15.666192 -21.172346,15.683797 -1.53566,-0.01552 -3.065564,-0.19043 -4.565096,-0.521932 -0.01238,0.01526 -0.02536,0.02969 -0.03772,0.04496 -1.158594,-0.216895 -2.33476,-0.326226 -3.513481,-0.326595 -10.563414,9.8e-5 -19.126668,8.563583 -19.126481,19.126998 9.8e-5,10.563212 8.563269,19.126383 19.126481,19.126481 0.271142,-0.0044 0.542161,-0.01457 0.812871,-0.03049 0.01802,0.02375 0.03969,0.04856 0.05788,0.07235 0.836473,-0.118302 1.680116,-0.178735 2.524911,-0.180868 10.140881,-4.4e-5 18.361721,8.220792 18.361671,18.361672 -0.0228,8.65057 -6.0804,16.11196 -14.541749,17.91156 -0.03122,0.0521 -0.06341,0.1024 -0.09457,0.15452 -7.515772,2.81749 -12.496608,10.00028 -12.500529,18.0268 -2.67e-4,10.63822 8.623649,19.26237 19.261878,19.26239 0.45865,-8.5e-4 0.91715,-0.0181 1.37458,-0.0517 0.007,0.007 0.0133,0.0146 0.0202,0.0217 0.48986,-0.0545 0.9817,-0.0897 1.47432,-0.10542 10.35206,3e-5 18.74405,8.39203 18.74408,18.74408 -3e-5,10.35204 -8.39202,18.74404 -18.74407,18.74407 -4.532733,-0.002 -8.911294,-1.64597 -12.324838,-4.62814 -2.623938,3.52703 -4.271928,7.5386 -3.478858,12.5429 H 130.86442 V 40.032787 Z M 85.120956,66.496288 a 8.3467999,8.3467999 0 0 1 8.347294,8.346777 8.3467999,8.3467999 0 0 1 -8.347294,8.347294 8.3467999,8.3467999 0 0 1 -8.346778,-8.347294 8.3467999,8.3467999 0 0 1 8.346778,-8.346777 z m 15.684314,66.560792 a 14.849864,14.849864 0 0 1 14.84974,14.85026 14.849864,14.849864 0 0 1 -14.84974,14.84974 14.849864,14.849864 0 0 1 -14.850257,-14.84974 14.849864,14.849864 0 0 1 14.850257,-14.85026 z" />
  </g>
</svg>
