<?xml version="1.0" encoding="UTF-8" standalone="no"?>
<!-- Created with Inkscape (http://www.inkscape.org/) -->

<svg
   width="210mm"
   height="297mm"
   viewBox="0 0 210 297"
   version="1.1"
   id="svg5"
   inkscape:version="1.2.1 (9c6d41e410, 2022-07-14)"
   sodipodi:docname="bg_1.svg"
   inkscape:export-filename="bg_1s.svg"
   inkscape:export-xdpi="96"
   inkscape:export-ydpi="96"
   xmlns:inkscape="http://www.inkscape.org/namespaces/inkscape"
   xmlns:sodipodi="http://sodipodi.sourceforge.net/DTD/sodipodi-0.dtd"
   xmlns="http://www.w3.org/2000/svg"
   xmlns:svg="http://www.w3.org/2000/svg">
  <sodipodi:namedview
     id="namedview7"
     pagecolor="#505050"
     bordercolor="#eeeeee"
     borderopacity="1"
     inkscape:showpageshadow="0"
     inkscape:pageopacity="0"
     inkscape:pagecheckerboard="0"
     inkscape:deskcolor="#505050"
     inkscape:document-units="mm"
     showgrid="false"
     showguides="true"
     inkscape:zoom="0.36031892"
     inkscape:cx="642.48639"
     inkscape:cy="653.58766"
     inkscape:window-width="1366"
     inkscape:window-height="705"
     inkscape:window-x="-8"
     inkscape:window-y="-8"
     inkscape:window-maximized="1"
     inkscape:current-layer="layer1">
    <sodipodi:guide
       position="0,204.05769"
       orientation="0,-1"
       id="guide6755"
       inkscape:locked="false" />
    <sodipodi:guide
       position="200.0976,156.01379"
       orientation="0.70710678,-0.70710678"
       id="guide6757"
       inkscape:locked="false" />
    <sodipodi:guide
       position="35.826923,297"
       orientation="1,0"
       id="guide6759"
       inkscape:locked="false" />
    <sodipodi:guide
       position="0,103.51108"
       orientation="0,-1"
       id="guide6761"
       inkscape:locked="false" />
    <sodipodi:guide
       position="200.09759,124.43875"
       orientation="0.70710678,-0.70710678"
       id="guide6763"
       inkscape:locked="false" />
    <sodipodi:guide
       position="63.884473,297"
       orientation="-0.70710678,-0.70710678"
       id="guide6767"
       inkscape:locked="false" />
  </sodipodi:namedview>
  <defs
     id="defs2" />
  <g
     inkscape:label="Layer 1"
     inkscape:groupmode="layer"
     id="layer1">
    <path
       id="rect1663"
       style="fill:#643ca7;fill-opacity:1;fill-rule:evenodd;stroke-width:0"
       d="M 0,0 V 296.99996 H 210.0001 V 162.65881 l -87.73883,87.73883 c -4.35959,4.35959 -11.42755,4.35959 -15.78715,0 v -5.2e-4 c -4.35959,-4.3596 -4.35959,-11.42756 0,-15.78715 L 210.0001,131.08399 V 0 Z" />
    <path
       style="fill:#5763c0;fill-opacity:1;fill-rule:evenodd;stroke-width:0"
       d="M 0,233.65384 161.99999,71.653855 a 21.294808,21.294808 90.000001 0 0 0,-30.115406 L 120.46154,0 H 0 Z"
       id="path7483"
       sodipodi:nodetypes="ccccc" />
    <path
       style="fill:#071a52;fill-opacity:1;fill-rule:evenodd;stroke-width:0"
       d="M 55.885946,190.67058 0,246.55653 v 50.44343 L 81.107662,215.8923 a 19.091884,19.091884 90.000003 0 0 10e-7,-27 17.878719,17.878719 175.96698 0 0 -25.221717,1.77828 z"
       id="path679" />
    <path
       id="path677"
       style="fill:#16b978;fill-opacity:1;fill-rule:evenodd;stroke-width:0"
       d="m 210,42.247901 -69.49448,69.494159 c -7.4558,7.45582 -7.4558,19.54408 0,26.9999 l 0.81804,0.81804 c 7.45584,7.45575 19.54406,7.45575 26.9999,0 L 210,97.883721 v -12.06422 l -45.49078,45.490879 c -4.35959,4.35959 -11.42755,4.35959 -15.78715,0 v -5.2e-4 c -4.35959,-4.3596 -4.35959,-11.42756 0,-15.78715 L 210,54.244781 Z"
       sodipodi:nodetypes="ccsscccsccscc" />
    <path
       style="fill:#d57496;fill-opacity:1;fill-rule:evenodd;stroke-width:0"
       d="M 0,0 V 193.48892 L 115.18665,78.302263 c 7.45585,-7.455851 7.45589,-19.544193 4e-5,-27.000044 L 63.884473,0 Z"
       id="path186"
       sodipodi:nodetypes="ccsscc" />
    <path
       style="fill:#de6155;fill-opacity:1;fill-rule:evenodd;stroke-width:0"
       d="M 106.86677,297 210,193.86675 V 297 Z"
       id="path449"
       sodipodi:nodetypes="cccc" />
    <path
       id="path6059"
       style="fill:#a7ff84;fill-opacity:1;fill-rule:evenodd;stroke-width:0"
       d="M 210,119.0874 98.25747,230.82942 a 19.091843,19.091843 0 0 0 0,26.9999 l 0.81804,0.81804 a 19.091935,19.091935 0 0 0 26.9999,0 L 210,174.72329 v -12.06438 l -87.73883,87.73883 c -4.35959,4.35959 -11.42755,4.35959 -15.78715,0 v -5.2e-4 c -4.35959,-4.3596 -4.35959,-11.42756 0,-15.78715 L 210,131.08409 Z" />
    <path
       style="fill:#5563c5;fill-opacity:1;fill-rule:evenodd;stroke-width:0"
       d="M 0,92.942311 50.884615,42.057692 a 19.091884,19.091884 89.999999 0 0 -10e-7,-27 L 35.826923,0 H 0 Z"
       id="path7905"
       sodipodi:nodetypes="ccccc" />
  </g>
</svg>
